<svg width="512" height="512" viewBox="0 0 512 512" fill="none" xmlns="http://www.w3.org/2000/svg">
<rect x="4" y="4" width="504" height="504" rx="160" fill="#0A0A0A"/>
<path fill-rule="evenodd" clip-rule="evenodd" d="M172.25 187H157.313C153.652 187 150.15 188.496 147.619 191.142L89.7206 251.672C87.3327 254.169 86 257.49 86 260.945V307.729C86 315.137 92.0058 321.143 99.4143 321.143H145.934C149.545 321.143 153.004 319.687 155.528 317.104L187.254 284.641L218.979 317.104C221.503 319.687 224.962 321.143 228.573 321.143H237.4H275.093H283.92C287.531 321.143 290.99 319.687 293.514 317.104L325.239 284.641L356.965 317.104C359.489 319.687 362.948 321.143 366.559 321.143H413.079C420.487 321.143 426.493 315.137 426.493 307.729V260.945C426.493 257.49 425.16 254.169 422.772 251.672L364.874 191.142C362.343 188.496 358.841 187 355.18 187H340.243H310.236H295.299C291.637 187 288.135 188.496 285.605 191.142L256.246 221.835L226.888 191.142C224.357 188.496 220.855 187 217.194 187H202.257H172.25Z" fill="white"/>
</svg>
