<svg width="140" height="140" fill="none" xmlns="http://www.w3.org/2000/svg"><g filter="url(#a)"><path fill-rule="evenodd" clip-rule="evenodd" d="M125.52 50.181c-10.955-30.1-44.238-45.62-74.339-34.665-30.1 10.956-45.62 44.239-34.665 74.34 10.956 30.1 44.239 45.62 74.34 34.664 8.708-3.169 16.186-8.201 22.159-14.478a4.5 4.5 0 1 1 6.52 6.203c-6.909 7.262-15.558 13.077-25.601 16.733-34.772 12.655-73.22-5.273-85.875-40.044-12.656-34.772 5.272-73.22 40.044-85.875 34.771-12.656 73.219 5.272 85.875 40.044 2.554 7.019 3.665 14.988 2.365 22.023-1.318 7.136-5.266 13.752-13.055 16.586-6.11 2.224-11.462.571-15.393-2.539a20.826 20.826 0 0 1-2.719-2.597c-3.196 10.31-11.005 19.06-21.93 23.036-18.554 6.753-39.069-2.813-45.822-21.366-6.753-18.554 2.814-39.069 21.367-45.822 10.002-3.64 20.574-2.538 29.252 2.158l-.439-1.205a4.5 4.5 0 1 1 8.458-3.078l12.707 34.914c.929 2.55 2.617 5.246 4.71 6.902 1.907 1.509 4.031 2.123 6.731 1.14 3.958-1.44 6.362-4.781 7.283-9.765.94-5.086.178-11.4-1.973-17.309Zm-29.368 10.68C91.096 46.984 75.75 39.83 61.87 44.881c-13.883 5.053-21.04 20.404-15.987 34.286 5.052 13.883 20.403 21.041 34.285 15.988 13.879-5.051 21.037-20.394 15.992-34.273l-.004-.013-.003-.008Z" fill="#B8D4FF"/></g><defs><filter id="a" x="4" y="-1" width="132.891" height="138.036" filterUnits="userSpaceOnUse" color-interpolation-filters="sRGB"><feFlood flood-opacity="0" result="BackgroundImageFix"/><feBlend in="SourceGraphic" in2="BackgroundImageFix" result="shape"/><feColorMatrix in="SourceAlpha" values="0 0 0 0 0 0 0 0 0 0 0 0 0 0 0 0 0 0 127 0" result="hardAlpha"/><feOffset dy="-4"/><feGaussianBlur stdDeviation="2"/><feComposite in2="hardAlpha" operator="arithmetic" k2="-1" k3="1"/><feColorMatrix values="0 0 0 0 0.4 0 0 0 0 0.643243 0 0 0 0 1 0 0 0 1 0"/><feBlend in2="shape" result="effect1_innerShadow_8361_41489"/></filter></defs></svg>