<svg width="140" height="140" fill="none" xmlns="http://www.w3.org/2000/svg"><g filter="url(#a)"><path d="M94.112 11.152 75.296 26.941 59.915 4.993c-1.483-2.117-4.406-2.626-6.528-1.148-2.117 1.532-2.63 4.41-1.143 6.532l15.843 22.605-30.26 25.39-15.382-21.93c-1.482-2.126-4.41-2.63-6.522-1.16-2.131 1.543-2.635 4.414-1.149 6.536l15.848 22.6-18.95 15.902a4.693 4.693 0 0 0-.578 6.604 4.693 4.693 0 0 0 6.604.577l18.328-15.378 22.785 32.502-19.438 16.31a4.69 4.69 0 0 0-.578 6.604 4.69 4.69 0 0 0 6.604.578l18.816-15.789 15.381 21.948c1.483 2.118 4.406 2.626 6.527 1.148l.328-.251a4.688 4.688 0 0 0 .816-6.281l-15.843-22.605 30.259-25.39 15.383 21.93a4.696 4.696 0 0 0 6.531 1.153l.328-.251a4.688 4.688 0 0 0 .816-6.281l-15.848-22.601 18.946-15.897a4.697 4.697 0 0 0 .577-6.604 4.696 4.696 0 0 0-6.603-.578l-18.328 15.379L80.7 34.645l19.438-16.31a4.69 4.69 0 0 0 .578-6.605 4.689 4.689 0 0 0-6.604-.578Zm2.163 62.036-30.259 25.39-22.78-32.497 30.258-25.39 22.781 32.497Z" fill="#B8D4FF"/></g><defs><filter id="a" x="10" y="-1" width="119.508" height="137.269" filterUnits="userSpaceOnUse" color-interpolation-filters="sRGB"><feFlood flood-opacity="0" result="BackgroundImageFix"/><feBlend in="SourceGraphic" in2="BackgroundImageFix" result="shape"/><feColorMatrix in="SourceAlpha" values="0 0 0 0 0 0 0 0 0 0 0 0 0 0 0 0 0 0 127 0" result="hardAlpha"/><feOffset dy="-4"/><feGaussianBlur stdDeviation="2"/><feComposite in2="hardAlpha" operator="arithmetic" k2="-1" k3="1"/><feColorMatrix values="0 0 0 0 0.4 0 0 0 0 0.643243 0 0 0 0 1 0 0 0 1 0"/><feBlend in2="shape" result="effect1_innerShadow_8361_41492"/></filter></defs></svg>