<svg width="140" height="140" fill="none" xmlns="http://www.w3.org/2000/svg"><g filter="url(#a)"><path d="m55.399 130.902-.087-.015C39.466 127.788.901 78.251 7.824 38.994c3.325-18.86 21.786-32.676 39.5-29.552 14.096 2.485 21.86 13.881 25.634 21.845 6.256-6.182 17.452-14.248 31.553-11.762 17.727 3.126 30.343 22.422 27.016 41.288-6.92 39.244-60.108 72.602-76.058 70.088l-.067-.012-.002.013ZM45.7 18.682c-12.803-2.258-26.181 8-28.642 21.953-6.23 35.33 30.71 79.008 39.974 81.035 9.41 1.266 59.047-27.14 65.278-62.476 2.46-13.954-6.603-28.168-19.405-30.426-15.56-2.743-27.438 13.795-27.543 13.961-2.026 3.21-7.725 2.205-8.537-1.505-.054-.2-5.553-19.797-21.12-22.541l-.005-.001Z" fill="#B8D4FF"/></g><defs><filter id="a" x="7" y="5" width="125.062" height="126.035" filterUnits="userSpaceOnUse" color-interpolation-filters="sRGB"><feFlood flood-opacity="0" result="BackgroundImageFix"/><feBlend in="SourceGraphic" in2="BackgroundImageFix" result="shape"/><feColorMatrix in="SourceAlpha" values="0 0 0 0 0 0 0 0 0 0 0 0 0 0 0 0 0 0 127 0" result="hardAlpha"/><feOffset dy="-4"/><feGaussianBlur stdDeviation="2"/><feComposite in2="hardAlpha" operator="arithmetic" k2="-1" k3="1"/><feColorMatrix values="0 0 0 0 0.4 0 0 0 0 0.643243 0 0 0 0 1 0 0 0 1 0"/><feBlend in2="shape" result="effect1_innerShadow_8361_41491"/></filter></defs></svg>