<svg width="140" height="140" fill="none" xmlns="http://www.w3.org/2000/svg"><g filter="url(#a)"><path d="M139.144 104.692a4.68 4.68 0 0 0-6.524-1.151l-16.074 11.255 11.114-63.028c2.244-12.728-6.289-24.908-19.012-27.15l-36.007-6.35a4.69 4.69 0 0 0-5.43 3.802 4.69 4.69 0 0 0 3.802 5.43l36.007 6.35c7.632 1.346 12.753 8.658 11.407 16.29l-11.113 63.028-11.255-16.073a4.681 4.681 0 0 0-6.525-1.15c-2.115 1.486-2.643 4.407-1.15 6.524l17.744 25.341a4.63 4.63 0 0 0 3.024 1.929 4.622 4.622 0 0 0 3.501-.779l25.341-17.744a4.67 4.67 0 0 0 1.15-6.524Zm-105.18 2.27c-7.632-1.346-12.752-8.659-11.406-16.29L33.67 27.643l11.255 16.073a4.7 4.7 0 0 0 3.036 1.932 4.651 4.651 0 0 0 3.5-.78 4.681 4.681 0 0 0 1.151-6.524l-17.744-25.34a4.67 4.67 0 0 0-6.524-1.151L3.003 29.598a4.67 4.67 0 0 0-1.15 6.524 4.681 4.681 0 0 0 6.524 1.15l16.074-11.254-11.114 63.027c-2.244 12.729 6.29 24.908 19.012 27.152l36.007 6.349a4.69 4.69 0 0 0 5.43-3.803 4.693 4.693 0 0 0-3.802-5.43l-36.02-6.351Z" fill="#B8D4FF"/></g><defs><filter id="a" x="1" y="7" width="139" height="122.812" filterUnits="userSpaceOnUse" color-interpolation-filters="sRGB"><feFlood flood-opacity="0" result="BackgroundImageFix"/><feBlend in="SourceGraphic" in2="BackgroundImageFix" result="shape"/><feColorMatrix in="SourceAlpha" values="0 0 0 0 0 0 0 0 0 0 0 0 0 0 0 0 0 0 127 0" result="hardAlpha"/><feOffset dy="-4"/><feGaussianBlur stdDeviation="2"/><feComposite in2="hardAlpha" operator="arithmetic" k2="-1" k3="1"/><feColorMatrix values="0 0 0 0 0.4 0 0 0 0 0.643243 0 0 0 0 1 0 0 0 1 0"/><feBlend in2="shape" result="effect1_innerShadow_8361_41490"/></filter></defs></svg>