<svg width="128" height="128" viewBox="0 0 128 128" fill="none" xmlns="http://www.w3.org/2000/svg">
<rect x="4" y="4" width="120" height="120" rx="36" fill="#0A0A0A"/>
<path fill-rule="evenodd" clip-rule="evenodd" d="M45.5703 46.8569H42.2376C41.4188 46.8569 40.6356 47.1916 40.0697 47.7833L27.1211 61.3204C26.5871 61.8787 26.2891 62.6215 26.2891 63.394V73.8569C26.2891 75.5138 27.6322 76.8569 29.2891 76.8569H39.6928C40.5004 76.8569 41.2739 76.5313 41.8384 75.9537L48.9297 68.6975L56.021 75.9537C56.5854 76.5313 57.3589 76.8569 58.1665 76.8569H60.1406H68.5703H70.5444C71.352 76.8569 72.1255 76.5313 72.69 75.9537L79.7852 68.6935L86.8803 75.9537C87.4448 76.5313 88.2183 76.8569 89.0259 76.8569H99.4297C101.087 76.8569 102.43 75.5138 102.43 73.8569V63.394C102.43 62.6215 102.132 61.8787 101.598 61.3204L88.6491 47.7833C88.0831 47.1916 87.2999 46.8569 86.4812 46.8569H83.1406H76.4297H73.0892C72.2704 46.8569 71.4872 47.1916 70.9212 47.7833L64.3555 54.6475L57.7897 47.7833C57.2237 47.1916 56.4405 46.8569 55.6218 46.8569H52.2891H45.5703Z" fill="white"/>
</svg>
