<svg width="512" height="512" fill="none" xmlns="http://www.w3.org/2000/svg"><rect x="8" y="8" width="496" height="496" rx="192" fill="#D9D9D9"/><rect x="8" y="8" width="496" height="496" rx="192" fill="url(#a)"/><g filter="url(#b)"><path d="M247.667 416h17.5c2.916-17.917 10.833-37.5 24.166-58.75C316 315.167 369.75 273.917 416 264.333v-17.5c-22.917-5-45.417-15.416-67.083-30.833-44.167-31.25-76.667-77.917-83.75-120h-17.5c-4.167 22.083-13.75 43.333-28.75 65-29.584 42.917-75.834 74.583-122.917 85.833v17.5c23.75 5 47.917 16.667 71.667 34.584 48.333 36.25 73.75 81.25 80 117.083Z" fill="url(#c)"/></g><defs><linearGradient id="a" x1="256" y1="391.81" x2="433.055" y2="391.488" gradientUnits="userSpaceOnUse"><stop stop-color="#9997EA"/><stop offset="1" stop-color="#7F8BFB"/></linearGradient><linearGradient id="c" x1="256" y1="343.619" x2="370.229" y2="343.412" gradientUnits="userSpaceOnUse"><stop stop-color="#1B1A1F"/><stop offset="1" stop-color="#18171C"/></linearGradient><filter id="b" x="96" y="96" width="320" height="328" filterUnits="userSpaceOnUse" color-interpolation-filters="sRGB"><feFlood flood-opacity="0" result="BackgroundImageFix"/><feColorMatrix in="SourceAlpha" values="0 0 0 0 0 0 0 0 0 0 0 0 0 0 0 0 0 0 127 0" result="hardAlpha"/><feOffset dy="8"/><feComposite in2="hardAlpha" operator="out"/><feColorMatrix values="0 0 0 0 1 0 0 0 0 1 0 0 0 0 1 0 0 0 0.3 0"/><feBlend in2="BackgroundImageFix" result="effect1_dropShadow_8379_42866"/><feBlend in="SourceGraphic" in2="effect1_dropShadow_8379_42866" result="shape"/></filter></defs></svg>